<?xml version="1.0" encoding="utf-8"?>
<!-- Generator: Adobe Illustrator 22.0.0, SVG Export Plug-In . SVG Version: 6.00 Build 0)  -->
<svg version="1.1" id="Layer_1" xmlns="http://www.w3.org/2000/svg" xmlns:xlink="http://www.w3.org/1999/xlink" x="0px" y="0px"
	 viewBox="0 0 1319.7 1425" style="enable-background:new 0 0 1319.7 1425;" xml:space="preserve">
<g id="ZzdIJN.tif">
	<g>
		<g>
			<path d="M332.2,897.6c-4.5-13.1-11.6-20.8-23.3-22.4c-14-1.8-28.2-2.4-42.4-3.4c-3.5-0.3-7,0.1-10.4-0.5
				c-1.5-0.3-2.8-2.2-4.2-3.4c1.4-1.2,2.7-3.4,4.1-3.5c7.2-0.4,14.5,0.1,21.7-0.3c9.3-0.6,18.8-0.8,27.9-2.8
				c18.9-4.1,26.4-13.2,27.2-32.6c0.6-13.9-0.2-27.8,0.1-41.7c0.1-4.9,1.9-9.8,3-14.7c1.4,0.1,2.7,0.1,4.1,0.2
				c1.1,8.8,2.5,17.6,3.1,26.5c0.7,11.8,0.8,23.6,1.2,35.4c0.3,12.1,6.5,20,17.6,24.5c9.8,4,19.7,6.9,29.2,4.5
				c2-9.2,2.6-18.1,5.9-26c5.7-13.7,16.7-20.4,32-21.6c27.9-2.1,52.8,7.2,77.2,18.6c2.7,1.2,5.4,2.4,8.1,3.5
				c0.7,0.3,1.5,0.1,4.6,0.4c-4.2-3.6-6.8-6.2-9.8-8.3c-54.2-37.6-86.3-90.3-105.5-152.3c-18.1-58.6-17.2-117.8-8.9-177.6
				c5.2-37.3,13.1-73.8,24.6-109.6c0.5-1.5,0.5-3.1,0.7-4.7c-26-2.9-46.1,11.1-50.1,36.5c-2.2,13.7-1.7,27.8-2.1,41.7
				c-0.4,16.6-0.4,33.3-0.6,49.9c0,1.9,0.3,4.2-0.6,5.5c-1.5,2.2-3.7,4.7-6,5.3c-4.3,1.1-5.2-2-5.2-5.8c0.1-14.8,0.6-29.6-0.1-44.3
				c-0.8-15.5-1.8-31.2-4.7-46.3c-5.6-28.4-19.3-40.5-48.3-43c-23.8-2.1-47.7-2.6-71.6-3.9c-1.6-0.1-3.1-0.3-5.5-0.5
				c-0.1-3-0.3-5.8-0.5-9.9c6.1-0.5,11.9-1.1,17.6-1.3c20.4-0.8,40.7-1.1,61.1-2.4c6-0.4,12-2.8,17.8-4.9
				c24.1-8.6,29.1-29.2,30.2-51.1c0.9-17.9,0.2-35.9-0.5-53.9c-0.7-16,0.8-23,9.7-31c1.9,9.3,4.6,17.4,5.1,25.7
				c1.3,22.2,1.5,44.6,2.5,66.8c1.2,29.6,22.9,50.1,52.6,50.8c5.5,0.1,5.8-3.4,7.1-6.8c12.1-32.3,23.1-65.2,36.6-96.9
				c13-30.3,27.7-60,48.2-86.1c8.6-11,17.9-21.8,32.6-24.9c3.3-0.7,7.5-0.2,10.4,1.4c12.3,6.7,21.9,16.5,28.5,28.7
				c11.2,20.7,28.4,35.4,46.9,49c2,1.4,5.6,2.3,7.7,1.5c37.3-13.6,73.8-28.7,107.9-49.6c20.5-12.5,32.3-29.8,37.8-52.5
				c3.9-16.1,7.5-32.5,18.6-45.8c7.2-8.6,11.9-10.3,22.5-6.9c21.7,7.1,38.9,21.2,55.8,35.9c1.8,1.6,4,3,5.3,5
				c12.6,19,30.7,17.5,49.4,13.2c27.6-6.4,38.3-19.5,39.5-49.6c0.6-15.8-0.3-31.6-0.5-47.5c-0.1-9.3-1.2-18.9,8.2-28.3
				c1.9,8.7,4.5,15.8,4.9,23.1c1.2,18.5,1.4,37,2.2,55.5c1.5,31.7,17.3,47.6,49.4,49.1c13.4,0.6,26.8-0.1,40.3-0.1c2.4,0,5,0,7,1
				c1.8,1,3.6,3.3,3.8,5.2c0.2,1.2-2.3,3.6-4,4.1c-4.1,1.1-8.4,1.7-12.6,2c-16.8,1.2-33.8,1.5-50.5,3.5c-18.9,2.3-29.3,12-31.5,31.1
				c-2,17-1.2,34.3-1.5,51.4c0,1.5,0.5,3.3,1.3,4.6c30.1,44.2,49.2,93.7,69.6,142.6c23.6,56.8,34.8,115.8,32.8,177.2
				c-0.4,13.3-2.7,26.6-4.2,40.1c1.4,0.4,2.5,0.5,3.3,1.1c2.9,1.9,5.8,3.9,8.7,5.8c-2.7,2.1-5.1,5.4-8.1,6c-5.4,1.2-6.7,4.5-7.4,9
				c-5.4,38-17.2,74.2-34.6,108.3c-18.7,36.5-41.4,70.3-72.9,97.3c-4.8,4.1-9.3,8.7-15.5,14.6c4.9,0.4,7.6,0.8,10.4,0.9
				c13.7,0.2,27.4,0.1,41.1,0.5c14.9,0.4,25.2,9.7,27.7,24.7c3.1,18.7-1.8,35.3-14.2,49.3c-8.4,9.4-18,17.5-27.1,26.3
				c6.5,11,15,15.7,28.4,11.9c31.8-9.1,62.1-4.6,88.5,15.5c22.7,17.3,34,42.1,39,69.9c9.2,51.4-0.5,99.7-23.1,146
				c-2.8,5.7-5.4,11.6-8.1,17.6c26.7,3.5,50.2-13.5,52.4-39.3c1.7-19.2,1.3-38.6,0.8-57.8c-0.3-13.7,0.5-20.1,8.4-28.9
				c1.9,8.6,4.4,15.9,4.9,23.2c1.2,18.5,1.4,37,2.2,55.5c1.5,31.3,17.1,47.3,48.7,48.9c13.6,0.7,27.4-0.1,41.1-0.1
				c2.6,0,5.4,0.3,7.7,1.4c1.5,0.8,3,3.1,3.1,4.9c0.1,1.2-1.9,3.4-3.4,3.8c-4.4,1.1-8.9,1.8-13.4,2.1c-16.8,1.2-33.8,1.5-50.5,3.5
				c-18.6,2.3-28.5,11.8-31.3,30.4c-1.9,12.4-1.7,25.1-2,37.7c-0.4,15.6-0.5,31.1-0.6,46.7c-0.1,6.2-2.6,9.1-10.2,6.5
				c0-2.6,0.1-5.7,0-8.8c-1.2-23.8-1.2-47.8-3.9-71.5c-3-27.1-15.9-38.9-42.2-42.5c-17.8-2.5-17.6-2.3-26.2,13.4
				c-21,38.4-46.7,73.3-77.7,104.2c-3.6,3.6-7.6,6.6-12.2,10.5c13.3,5.3,25.7,10.2,38.2,15.2c0,0.8-0.1,1.7-0.1,2.5
				c-4.6,1.7-9,4.1-13.8,4.9c-43.5,7.3-87,15.1-130.8,21.2c-15.2,2.1-31.1-0.4-46.7-0.2c-89.7,1.5-179.4,4.3-269,4.4
				c-57.7,0.1-115.5-2.7-173.1-6.2c-40.6-2.4-81.1-7.7-121.6-12.8c-11.4-1.4-22.4-6.6-33.6-10.1c-0.1-1.2-0.3-2.4-0.4-3.5
				c9.4-3.6,18.6-8.8,28.3-10.5c24.2-4.2,48.7-7.9,73.2-9.8c47.6-3.6,95.3-5.9,143-8.7c1.5-0.1,3.1-0.4,6.7-0.9
				c-12.4-13.2-23.8-25.3-36.8-39.1c-2.5,3.5-4.2,6.7-6.7,9.1c-26.3,25.4-64.8,31.4-98.4,15c-33.7-16.5-60-41.8-83.8-70.3
				c-33.9-40.7-50.8-89.6-66.9-138.8c-10.8-33-17.6-66.9-16.4-101.9c0.3-8.1-3-9.9-9.9-8.7c-7.7,1.3-15.5,2.1-23,4
				c-14.5,3.7-23.1,15.4-24.3,33.1c-0.7,9.9-0.5,19.9-0.7,29.8c-0.3,14.2-0.7,28.4-0.8,42.7c0,6.1-2.8,7.5-9.3,5.5
				c0-12.4,0.8-25.3-0.2-38.1c-1.2-16-2.9-32-6.1-47.7c-3.1-15-13.6-24.4-29-26.3c-17.3-2-34.7-2.7-52.1-3.9
				c-6.4-0.4-12.8-0.8-19.8-1.2c0-2.9,0-5.3,0-8.8c5.7-0.3,11.2-0.8,16.8-1c15.3-0.6,30.8,0.4,45.8-1.8
				c29.2-4.2,39.9-16.6,41.2-46.1c0.6-15.3-0.4-30.6-0.5-45.9c-0.1-8.1-0.9-16.6,8-24.2c1.6,8.1,3.7,14.7,4.1,21.5
				c1.2,19,2.1,38,2.4,57c0.2,16.5,7.6,27.4,22.7,33.5c10.8,4.3,21.6,7.7,33.2,5.7c2.2-15.3,4-30.1,6.6-44.8
				c2.9-16.1,9.7-30.8,20.7-43c18-19.9,40.5-21.1,64.3-13.2C312.7,889,321.3,893.2,332.2,897.6z M978.9,752.9c0-6.3,0.3-12.4,0-18.5
				c-1.3-24.4-1.5-48.9-4.7-73c-3.8-28.8-17.5-41.3-46.4-44.4c-19.2-2.1-38.5-2.2-57.8-3.3c-6.4-0.4-12.7-1.1-18.8-1.6
				c-2.6-7.9,0.1-10.6,7.3-10.5c14.2,0.2,28.5,0.4,42.7-0.2c9.9-0.4,19.8-1.3,29.5-3.1c20.6-3.9,37.4-13.5,40.9-36.1
				c2.6-16.9,3.2-34.1,3.8-51.2c0.4-11.8-1.2-23.6-0.7-35.4c0.2-5,3.6-9.8,5.5-14.7c1.1,0.2,2.2,0.4,3.3,0.5
				c1.6,7.5,4.1,14.9,4.6,22.4c1.5,24.1,2.1,48.3,3.2,72.4c0.7,13.8,5.3,25.5,18,33.1c21.7,13,45,14.1,69.3,10.7
				c0.7-3,1.6-5.8,2-8.7c6.3-46.3,1.5-92.2-7.3-137.4c-3.9-19.9-13.3-38.8-20.1-58.1c-12.3-35.1-25-70.1-43.8-102.5
				c-5.6-9.6-11.7-18.9-18.4-29.7c-1.3,5.1-2.1,8.2-2.9,11.7c-2.9-0.1-5.4-0.3-8.7-0.4c0-7.8,0.3-15-0.1-22.2c-0.2-3-1-6.4-2.7-8.8
				c-6.7-9.7-13.3-19.6-20.8-28.7c-16.2-19.7-32.9-38.9-49.4-58.3c-5-5.9-11.2-8.3-19.1-7.9c-7.9,0.4-15.8-0.8-24-1.3
				c-0.8-17,14-5.8,19-12.2c-17.8-16.5-36.5-31.5-58.2-42.8c-5.3-2.7-8-1.6-11.5,2.4c-9.3,10.8-13.2,24.1-15.4,37.5
				c-4.8,28.8-21.5,48.5-45.9,62.6c-35.8,20.7-72.4,39.5-112.3,51.3c-3.2,1-7.9,0.2-10.8-1.6c-21.5-13.3-39.8-29.6-52.1-52.4
				c-6.8-12.5-17.6-21.8-29.9-29.1c-29.9,27.1-47.1,62.1-65,96.2c-18,34.4-27.3,72.2-39.9,109.2c2.5,0.4,3.5,0.6,4.6,0.6
				c9.1,0.1,18.3-0.4,27.4,0.4c3,0.3,5.7,3.8,8.5,5.8c-2.4,2.1-4.6,5.6-7.2,5.9c-10.3,1.2-20.8,1.6-31.2,1.7c-4.6,0.1-7.1,1-8.6,5.9
				c-15.9,52.9-29.7,106.1-33.4,161.5c-2.5,37.5-0.4,74.7,9.3,110.8c16.3,60.9,47.5,112.8,98,151.9c17.8,13.8,36.1,27.6,57.9,34.2
				c52.6,15.9,106.5,26.3,161.4,29.2c32.6,1.8,65.4,1.9,98.1,1.8c21.8-0.1,43.1-3.8,63.7-11.5c5.6-2.1,8.6-4.5,8-11.4
				c-0.7-7.9-0.6-16.5,8.4-23.1c2.2,9,4.1,17,6.2,25.6c97.4-51.9,144-138,165.3-243.1c-18.8-1.6-35.4,0.5-52,3.5
				c-18.2,3.2-28.5,14.1-32.2,31.4c-1.8,8.3-2.4,17-2.6,25.5c-0.6,23.3-0.7,46.7-0.9,70.1C989.7,752.1,987.7,755.9,978.9,752.9z
				 M902,1049.9c-2.4,2-3.3,2.6-4,3.3c-31.8,29.2-50.7,66.1-62.6,106.9c-2.8,9.8-4,20.6-3,30.7c1.1,11.2,1.2,21.6-3.5,32.1
				c-2,4.5-2.7,9.8-3.4,14.8c-4.4,29.9,1.2,58.6,11.3,86.6c13.3,36.6,47.3,57.5,84,53.7c50-5.1,88.7-31.4,121.2-66.7
				c19.8-21.6,35.4-47.2,52.6-71.2c4.6-6.4,8-13.7,12.3-21.3c-13.9-0.7-26.4-1.4-39.4-2.1c0.2-3.8,0.4-6.4,0.7-10.3
				c9.4,0,18.3-1,27,0.2c13.3,1.8,19.4-3.3,24.8-15.7c17.4-40.5,32.2-81.1,28.5-126.4c-2.1-24.8-7.3-48.1-22.6-68.3
				c-15.8-20.9-38.2-31.2-62.8-30c-35.7,1.6-69.4,13-99.1,33.9c-16.4,11.5-32.9,22.8-49.9,34.6c-0.2-2.6-0.4-5.5-0.6-8.4
				c-1.4,21.2-1.4,42.4-1.4,63.6c0,6.7-2.7,9.4-10.1,6.6C902,1081.6,902,1066.6,902,1049.9z M762.4,1250.1
				c8.7-8.2,17.2-15.6,25-23.8c19.2-20.2,19.5-22.7,1.7-44.2c-7.5-9.2-9.3-18-6-29.6c7.4-26.4,11-53.1,6.2-80.9
				c-12-69.4-87.4-115.4-155.6-85c-7.8,3.5-15.8,6.5-23.9,9.6c-13.4,5-26.2,3.9-38.2-4.3c-5.1-3.5-10.5-6.5-15.5-10.1
				c-45.3-31.9-94.6-24.9-133.9,6.1c-30.8,24.3-42.6,57.7-44.5,95.2c-2.4,47.1,10.6,89.5,42.9,125c26,28.6,52,57.3,78.7,85.2
				c19.5,20.3,40.2,39.5,60.3,59.2c3.7,3.7,6.9,3.7,11.1,0.6c15.4-11.2,31.2-21.9,46.5-33.2c16.4-12,31.4-26.8,52.1-31
				c22.5-4.5,37.8-17.8,49.3-36.6c2.8-4.6,6-8.9,9.3-13.2c3.3-4.4,6.9-8.6,10.4-12.9C746.5,1234.3,753.9,1241.6,762.4,1250.1z
				 M338.9,964.5c-0.9-0.7-1.9-1.4-2.8-2.1c0-10.2-0.4-20.4,0.1-30.5c0.6-11.5-3.5-19.4-14.7-23.2c-9.6-3.3-18.8-7.8-28.6-10.3
				c-7-1.8-14.8-1.9-22.1-1c-12.1,1.5-21.4,8.8-28,18.6c-14.2,21.3-17.2,45.4-16.6,71.2c6.5,0,11.9-0.5,17.2,0.3
				c2.2,0.3,4.1,3.5,6.1,5.4c-1.9,1.5-3.6,4-5.8,4.5c-5.6,1.3-11.4,1.8-17.4,2.7c-0.8,33.3,1.9,65.4,12.2,97
				c16.3,50.4,33.2,100.2,67.2,142.1c22.6,27.8,47.9,52.8,80.8,67.3c33.5,14.8,66,9.7,90.3-20.3c-2.1-2.5-4.3-5.1-6.6-7.6
				c-9.5-10.2-19.3-20.2-28.6-30.6c-14-15.6-28.3-30.9-41.2-47.4c-21.2-27.2-30.8-58.9-32.7-93.2c-2.3-43.2,4.7-83.4,34.7-116.8
				c3.2-3.6,3.4-6.1,0.1-9.5c-16-16.9-31.9-34-48-50.8c-2.5-2.6-6.2-4.1-11.1-7.2c0,13.1,0.2,24.1-0.2,35.1
				C343.1,960.3,340.4,962.4,338.9,964.5z M448.4,952.7c0.4,0.7,0.7,1.4,1.1,2.1c6.9-0.6,13.8-1.1,20.6-2
				c17.5-2.3,35.3-1.8,48.7-17.7c13.2-15.7,29.1-29.2,43.6-43.4c-1-2-1.3-2.8-1.8-3.3c-28.3-27.3-61.3-46.5-99.4-56.6
				c-11.7-3.1-23.5-4.6-35.7-2c-11.2,2.4-19.1,9.5-21.5,20.2c-1.8,7.7,1,12,8.5,14.1c1.8,0.5,3.4,1.9,6.5,3.6
				c-3.8,2.4-6.4,4-8.9,5.6c9.3,27.9,31.2,43.2,56,55.8C459.9,937.4,454.2,945,448.4,952.7z M979.1,942.7
				c8.5-6.6,16.2-12.4,23.7-18.5c12-9.6,23.2-20,28.4-35.2c6-17.4-2.1-32.9-20.5-34.6c-12.7-1.2-26.2,0.4-38.8,3.2
				c-18.2,3.9-36,9.8-53.9,15.3c-2.4,0.7-5.7,4.2-5.7,6.4c0.2,15.5,0.7,31.1,1.9,46.6c0.8,11,7.5,18.2,16.9,23.9
				c20.1,12.2,41.9,10.3,65.4,9C990.3,953,985.1,948.2,979.1,942.7z M809.1,1248.1c-4,2.6-6.9,5.1-10.2,6.4
				c-6.1,2.3-12.3,4.7-18.7,5.4c-6,0.6-12.5,0-18.3-1.7c-7.6-2.3-11.3,1-15.1,6.6c-8.6,12.5-18.1,24.1-32.9,29.8
				c-7.2,2.8-14.6,5.2-22,7.5c-16.5,5-29.7,15.2-43.2,26.9c17.5,10.2,34.1,18.2,53.5,21.1C752.2,1357.7,819.3,1319,809.1,1248.1z
				 M813.7,1171.5c2.2-2.4,2.9-2.8,3.2-3.5c1.5-3.7,3.2-7.4,4.3-11.2c8.8-29.1,20-57,38-81.9c3.6-5,6.5-11.6,6.9-17.6
				c1.8-26.3-0.2-52.4-7.1-78c-1.1-4.1-2.8-5.8-7-5.9c-18.2-0.6-36.4-1.5-54.7-2c-1.6,0-4.4,2.1-4.8,3.7c-2.2,7.7-4.2,15.5-5.4,23.4
				c-0.4,2.6,1.3,6.2,3.2,8.4c30.4,36.2,41.1,77.2,31,123.6C818.5,1143.3,816.5,1156.3,813.7,1171.5z M796.3,895.5
				c-3.5-1-5.4-2-7.5-2.2c-26.7-2.4-53.3-5-80-6.7c-12.7-0.8-13.6,0-14.4,12.4c-1,15.6-0.2,31.4-0.2,47.3c4.3,0.2,8,0.4,11.7,0.6
				c19.5,0.8,19.6,0.7,27-17.4c3.4-8.3,7.1-16.6,11.8-27.2c3,6.5,6.1,10.5,6.8,14.9c1.6,10.2,2.1,20.7,3.2,31
				c0.3,2.5,0.5,6.2,2.1,7.2c8.6,5.1,17.6,9.6,27.9,15C788.6,944.6,792.4,920.4,796.3,895.5z M416.7,977
				c15.6-7.4,27.3-16.5,26.3-35.7c-0.3-5.6-1.1-9.2-5.6-12.6c-17.7-13.7-31.5-30.4-39.8-51.5c-0.8-2.1-4.1-4.8-6-4.6
				c-10.3,1-20.8,1.9-30.9,4.4c-9.7,2.5-17,14.9-16.1,25.2c0.1,1.8,1.5,3.8,2.9,5.2c16.3,15.4,32.9,30.5,48.9,46.2
				C403.9,960.9,410.1,969.3,416.7,977z M624.5,883.7c-44.5,7.8-75.9,36.6-108.7,67c18.4,4.1,34.7,7.7,51.6,11.5
				C578.7,930.4,603.2,908.6,624.5,883.7z M850.7,958.6c0.8-0.9,1.7-1.7,2.5-2.6c-7.4-15.9-14.4-32-22.5-47.5
				c-2.8-5.4-8.1-10.4-15.8-8.7c-7.5,1.6-10.3,7.8-11.6,14.1c-3.1,14.8-5.5,29.8-8.1,44.8C814.5,958.6,832.6,958.6,850.7,958.6z
				 M772.3,1007.3c4,7.1,7.9,14.3,12.1,21.3c12.8,21.2,19.9,44.2,18.2,68.7c-1.5,21.5-5.9,42.8-9.8,64c-0.9,4.9,0,7.9,2.8,11.5
				c4.9,6.3,9.9,12.7,14,19.5c4.8,8.2,4.9,16.8-1.5,24.7c-5.1,6.2-10.1,12.5-15.1,18.8c-3.7,4.8-7.3,9.7-11,14.5
				c14.5-5.6,23.6-16.4,32.1-27.9c12.8-17.3,13.1-17.4-0.1-34.4c-8.6-11.1-11.7-21.8-8-36.3c6.7-26.1,11.9-52.7,5.4-80
				C805.4,1046.2,793.7,1024,772.3,1007.3z M900.2,884.7c-1.1-0.5-2.3-1-3.4-1.5c-14.1,10.1-28.2,20.1-42.1,30.4
				c-1.1,0.8-2.1,3.4-1.7,4.6c4.7,12,9.7,24,14.6,36c13.5-3.4,23.1-11.5,26.1-24.6C897.1,914.8,898.2,899.6,900.2,884.7z M359.8,346
				c-10.3,9.7-21,19.8-32.5,30.5c9.6,8.5,19.7,17.6,30.1,26.3c1.5,1.3,5.8,1.7,6.9,0.6c9.2-9.1,17.9-18.7,26.2-27.6
				C380.6,366.3,370,356,359.8,346z M982.7,577.7c-10.2,9.6-20.8,19.6-32,30.2c9.4,8.4,19.5,17.5,29.9,26.2c1.4,1.2,5.6,1.4,6.7,0.2
				c9-8.9,17.5-18.3,25.7-27C1003.3,597.9,992.9,587.7,982.7,577.7z M1006.7,146.5c-8.4-9-17.4-18.7-26-27.9
				c-7,6.6-16.6,15.6-26.6,25c8.3,7.4,16.9,15.4,26,22.9c1.5,1.3,5.9,1.5,7.2,0.4C995.2,159.1,1002.6,150.8,1006.7,146.5z
				 M1208.9,1213c-6.3-6.7-15.2-16.3-23.7-25.3c-6.9,6.5-16.5,15.4-26.4,24.7c9.9,8.7,19.9,17.6,27.9,24.6
				C1196.1,1226.8,1204.2,1218.1,1208.9,1213z M876.8,965.7c8.2,7.3,16.9,15.3,25.9,22.8c1.6,1.3,5.7,2.1,6.7,1.1
				c8.2-8.1,16-16.7,20.2-21.2c-8.7-9.1-17.7-18.5-26.3-27.5C896.4,947.3,886.8,956.3,876.8,965.7z M976.9,216.3
				c2-45.7-17-67.9-57.7-64.6C938.4,173.3,957.7,194.8,976.9,216.3z M169,993.5c-5.7-6.1-14-15-22.1-23.6
				c-6.4,6-15.3,14.3-24.8,23.2c9,7.9,18.4,16.4,26.9,23.8C157.3,1007.2,164.6,998.7,169,993.5z M665.4,937.2
				c5.8-19,10.9-35.9,16.5-54.2c-11,0.7-20,1.3-29,2.1c-1.1,0.1-2.3,1.2-3,2.2c-5.5,8.2-5.1,26.3,1,34.1
				C654.9,926.3,659.5,930.7,665.4,937.2z M589.3,944.3c-4.7,8.9-9.3,17.5-14.3,26.8c12.3,4.2,23.5,8,34.8,11.8
				C615.5,959.8,613.6,956.4,589.3,944.3z M872.4,978.5c2.8,19.8,5.5,38.8,8.5,59.2c5.6-5,9.8-8.6,13.8-12.4
				c1.6-1.5,3.6-3.6,3.8-5.5C900.3,1004.3,887.9,984.4,872.4,978.5z M338.5,886.8c7-8,12.8-14.5,16.2-18.3
				c-4.8-4.8-11.6-11.6-18.1-18.1c-4.7,4.4-11.5,10.8-18.9,17.7C324.7,874.4,331.9,880.9,338.5,886.8z M540.9,852.5
				c-0.6,0.5-1.1,0.9-1.7,1.4c10.7,10.4,21.4,20.8,32.3,31.1c0.9,0.9,3.1,1.4,4.2,0.9c9-3.9,17.8-8.1,27.4-12.5
				C581.6,866.2,561.3,859.4,540.9,852.5z M914,1008.7c20.1-12.5,38.8-24,57.4-35.6c-0.2-0.7-0.3-1.4-0.5-2.1
				c-11.3,2.1-22.9,3.4-34,6.5C922,981.5,917.1,993.7,914,1008.7z M792.9,1334c12.2,0,22.5,0,33.9,0c-3-11.6-5.6-22.2-8.7-34.2
				C809.1,1311.9,801.4,1322.3,792.9,1334z M743.4,1243c-0.8-0.6-1.7-1.2-2.5-1.8c-10.8,14.4-21.6,28.8-32.4,43.2
				c0.7,0.5,1.3,1,2,1.5C724.7,1274.1,739.6,1262.8,743.4,1243z M842.5,903c8.4,0.2,15.7-5,14.4-9.2c-0.7-2.3-4.8-5.2-7.3-5.2
				c-5.1,0.2-11.6,0.8-11.7,8C837.9,899.1,841.5,901.7,842.5,903z M643.1,974.3c2.4-2.9,4.6-4.4,4.8-6.1c0.1-1.3-2.4-4.3-3.5-4.1
				c-1.9,0.2-4.5,1.9-5,3.6C639,969,641.2,971.1,643.1,974.3z"/>
			<path d="M1045.8,807.1c2.2-1.3,4.2-3.7,6.5-3.8c11.5-0.6,23.1,0.1,34.5-1c25.6-2.4,33.2-10.5,34.6-36.1
				c0.6-10.9-0.4-21.9-0.1-32.9c0.1-4.7,1.6-9.4,2.5-14.1c1,0,2.1,0,3.1,0c1,4.5,2.7,8.9,3,13.4c0.8,11.2,2.1,22.6,1.4,33.7
				c-1.6,26.3,12.2,34.9,38.8,36.6c7.2,0.5,14.5-0.2,21.7,0.1c2.5,0.1,5,1.5,7.5,2.3c0,1,0,2,0,3c-3.6,0.7-7.2,1.9-10.9,2.2
				c-10.4,0.8-20.9,0.7-31.3,2c-17.7,2.2-24.8,10.2-25.5,28.2c-0.5,12.6-0.1,25.2-0.2,37.8c0,3.8,0.2,7.6-0.6,11.2
				c-0.4,1.7-2.7,3.1-4.1,4.6c-0.9-1.6-2.4-3.2-2.5-4.9c-0.6-12.8-0.7-25.7-1.5-38.6c-0.4-6.6-1.6-13.3-3.5-19.7
				c-2.9-9.7-9.6-16.5-19.9-17.6c-17.2-2-34.6-3-51.9-4.4C1047.1,808.5,1046.5,807.8,1045.8,807.1z M1141.3,807.8
				c-4.6-5.3-10.2-11.9-15.6-18.1c-5.4,5.1-11.5,10.9-18.4,17.3c6.6,5.8,13.2,11.8,19.6,17.4C1133,817.3,1138.2,811.3,1141.3,807.8z
				"/>
			<path d="M579.9,1155.6c0-14.2-0.1-27.5,0-40.7c0.1-9.7,0.6-19.3,1.2-29c1-16.2-6-28.9-19.2-36.5c-27.6-15.9-56-30.4-84-45.5
				c-6.2-3.3-11.5-0.6-15.3,3.4c-7.6,7.8-14.5,16.4-21.3,25.1c-0.9,1.2,0.1,5.2,1.5,6.6c7.2,7.2,14.9,13.9,22.4,20.8
				c-0.5,0.5-0.9,1-1.4,1.4c0,0.5,0.3,1.2,0.1,1.5c-14.9,22-12.6,47.7-15.5,72.2c-1.1,9.6-1,19.3-2.2,28.9
				c-2.2,16.9,3.3,30.4,17.9,39.1c12.6,7.6,25.5,14.7,38.9,20.6c4.3,1.9,11.2,0.6,16-1.5c21.6-9.4,42.5-20.4,59.1-36.3
				c10.4,11.6,20.4,22.9,30.4,34.1c-12.1,14.1-24.7,28.6-39,45.2c16.5,7.2,30.8,13.3,46.3,20c-14.9,13.6-28.3,29-48.1,35.7
				c-2.8,1-7.9-1.4-10.6-3.7c-9.2-8.3-18-17-26.4-26c-27.8-29.5-55.7-58.9-82.8-89.1c-21.4-23.8-39.1-50.2-43.1-82.9
				c-3-24.6-2.8-49.3,5.7-73.2c12.7-35.7,46.3-57.4,86.9-56.3c30,0.8,54.6,11.9,72.7,36.3c5.7,7.7,12,14.9,18,22.4
				c12.8-10.3,24.4-20.7,37-29.7c47.9-34.2,133.7-11.1,140.8,65.6c3.4,37.2-4.3,70.9-28,100.2c-5.1,6.3-12.1,11.1-18.2,16.6
				c-1.1-0.3-2.2-0.6-3.2-0.9c-0.8-14.5-1.6-29-2.3-43.6c-0.9-21.4,0-43-3-64.1c-3.7-25.8-28.8-41.1-53.4-33.2
				c-17.9,5.8-34.9,14.7-52.2,22.3c-6.8,3-9.9,8.8-10.9,15.8c-1.7,11.7-3,23.4-4.7,35C588.9,1140.6,587.1,1148.8,579.9,1155.6z
				 M586.6,1071.4c0.5,0.6,1,1.3,1.5,1.9c4.4-1.5,8.9-2.9,13.3-4.6c16.4-6.6,32.3-14.6,49.1-19.8c36.8-11.4,67.6,7.5,73.2,45.4
				c2.7,18.4,2,37.3,2.6,56c0.3,9.9,0.1,19.9,0.1,31.8c20.6-28.6,31-58,28.9-91.7c-3.8-62.4-60.6-83.1-99.9-72.6
				c-23.4,6.2-40,22.2-56.7,38C594,1060.3,590.6,1066.2,586.6,1071.4z M594.2,1220.5c-4.6-4.3-8-6.9-10.8-10.1
				c-4-4.6-7.8-5.1-13.2-1.9c-11.1,6.5-22.2,13-33.9,18.2c-12,5.3-24.7,9-37.2,13.4c0-0.2-0.1,0.5,0.2,0.8
				c21.2,22,42.4,44.1,63.7,66c1.1,1.2,4.3,2,5.4,1.3c8.4-5.4,16.6-11.3,25.9-17.8c-6.7-3.4-11.9-6.1-17.1-8.8
				c-11.4-6.1-15.7-15.3-11.5-27.5c1.9-5.7,5.2-11.3,9.2-15.8C580.6,1232,587.4,1226.7,594.2,1220.5z M426.8,1036.9
				c-17.3,35.9-16.4,94.6,7.7,127c0.6-3.8,1-6.5,1.3-9.3c3.4-29.2,6.7-58.3,10-87.5c0.2-2,0.7-4.6-0.3-5.9
				C439.6,1053.1,433.3,1045.2,426.8,1036.9z M507.1,1000.9c-0.5,0.9-1.1,1.8-1.6,2.6c16.6,9.3,33.2,18.5,49.7,27.8
				c0.5-0.9,1-1.8,1.5-2.7C543.9,1012.9,527.3,1003.7,507.1,1000.9z"/>
			<path d="M504.3,1084.5c5.7,1.9,10.3,3.3,14.7,4.8c7.8,2.7,12.2,8.6,11.4,16.5c-1.8,19.1-4.2,38.2-7.1,57.3c-0.9,6.3-6,8-11.7,5.5
				c-8.3-3.6-12.8-10.5-14.5-19C492.9,1127.6,498.1,1106.6,504.3,1084.5z M511.3,1155.8c7.8-19.7,9.2-48.4,3.3-59.3
				C507.3,1113.2,505.5,1140.7,511.3,1155.8z"/>
			<path d="M647.5,1101.4c21.4,8.5,24.3,24.1,21.4,42.3c-2.2,14.2-4.4,28.5-6.7,42.7c-18.4-4.2-24.8-12-24.1-30.1
				c0.5-13.1,1.2-26.2,2.9-39.1C641.7,1111.7,645.2,1106.6,647.5,1101.4z M654.8,1115.4c-7,13.7-8.4,40.3-3.2,56.4
				C656.5,1152.9,659.5,1135.3,654.8,1115.4z"/>
			<path d="M648.8,1228.7c0.8-6.4,11.5-17,14.9-14.1c5,4.3,7.9,11.3,10.7,17.6c0.2,0.6-7.1,6.4-10.9,6.4
				C654.4,1238.6,648.3,1233.5,648.8,1228.7z"/>
		</g>
	</g>
</g>
</svg>
