<?xml version="1.0" standalone="no"?>
<!DOCTYPE svg PUBLIC "-//W3C//DTD SVG 20010904//EN"
 "http://www.w3.org/TR/2001/REC-SVG-20010904/DTD/svg10.dtd">
<svg version="1.0" xmlns="http://www.w3.org/2000/svg"
 width="300.000000pt" height="300.000000pt" viewBox="0 0 300.000000 300.000000"
 preserveAspectRatio="xMidYMid meet">
<metadata>
Created by potrace 1.10, written by Peter Selinger 2001-2011
</metadata>
<g transform="translate(0.000000,300.000000) scale(0.100000,-0.100000)"
fill="#000000" stroke="none">
<path d="M1295 2816 c-556 -92 -983 -502 -1102 -1056 -25 -119 -25 -401 0
-520 114 -533 514 -933 1047 -1047 119 -25 401 -25 520 0 475 102 853 436
1004 888 48 145 61 231 61 419 0 188 -13 274 -61 419 -150 448 -528 784 -994
886 -102 22 -370 28 -475 11z m453 -51 c504 -99 898 -481 1013 -985 25 -110
35 -328 20 -442 -73 -548 -471 -981 -1010 -1100 -77 -18 -130 -22 -271 -22
-154 0 -189 3 -286 26 -596 140 -1004 653 -1004 1263 0 636 458 1166 1097
1270 109 18 325 13 441 -10z"/>
<path d="M1310 2715 c-261 -43 -486 -159 -675 -349 -198 -199 -310 -423 -351
-698 -64 -432 126 -884 483 -1152 435 -327 1031 -326 1467 1 338 254 531 686
488 1095 -57 546 -445 978 -982 1094 -103 22 -323 27 -430 9z m438 -54 c232
-51 428 -159 596 -327 395 -398 456 -1018 146 -1486 -364 -550 -1094 -700
-1642 -338 -128 84 -279 238 -357 364 -169 273 -221 611 -142 919 122 472 521
824 1006 887 99 13 290 3 393 -19z"/>
<path d="M1364 2409 c-18 -20 -19 -40 -19 -339 l0 -318 -40 23 c-446 260 -466
270 -502 247 -20 -13 -123 -200 -123 -225 0 -13 8 -31 18 -40 9 -8 110 -69
223 -134 l206 -119 -200 -114 c-237 -136 -247 -144 -247 -177 0 -25 88 -189
117 -218 30 -31 68 -16 303 120 128 74 236 135 239 135 3 0 6 -141 6 -314 0
-387 -14 -356 159 -356 67 0 126 4 132 8 31 20 34 55 34 356 0 168 2 306 4
306 2 0 109 -61 237 -135 295 -171 280 -170 361 -30 61 105 70 142 41 167 -10
9 -106 66 -213 128 -107 62 -199 116 -203 120 -4 4 77 55 180 115 232 133 253
148 253 182 0 25 -87 189 -117 218 -8 8 -26 15 -40 15 -16 0 -124 -57 -262
-136 -130 -75 -238 -138 -241 -139 -3 -2 -4 133 -2 298 1 166 0 312 -3 324
-11 47 -28 53 -159 53 -112 0 -125 -2 -142 -21z m246 -29 c13 -8 15 -56 18
-313 l3 -304 23 -22 c22 -21 25 -21 57 -7 19 8 54 27 79 42 142 84 301 174
338 193 53 27 56 26 117 -79 36 -61 44 -83 37 -97 -6 -10 -88 -63 -183 -118
-170 -97 -239 -146 -239 -168 0 -26 67 -75 233 -170 99 -56 183 -110 189 -120
7 -14 2 -32 -22 -75 -40 -71 -78 -122 -91 -122 -5 0 -111 58 -236 130 -124 71
-236 130 -248 130 -52 0 -54 -12 -57 -338 -3 -256 -5 -304 -18 -312 -19 -12
-190 -13 -208 -1 -11 6 -13 67 -12 303 1 285 0 295 -20 321 -12 15 -31 27 -44
27 -12 0 -118 -56 -236 -124 -118 -68 -225 -126 -237 -130 -17 -5 -27 0 -46
26 -41 55 -84 142 -80 160 2 9 86 64 191 125 187 107 232 140 232 166 0 28
-54 67 -231 169 -100 57 -185 110 -190 120 -6 12 4 38 37 96 25 45 52 86 60
92 16 14 46 0 264 -128 80 -47 167 -95 195 -108 l50 -24 25 25 25 25 2 302 c1
236 4 303 15 309 18 12 189 11 208 -1z"/>
<path d="M1425 2338 l-27 -32 4 -301 c3 -336 5 -342 75 -371 31 -14 37 -13 66
3 64 37 67 55 67 380 l0 291 -26 31 c-23 27 -32 31 -79 31 -48 0 -56 -3 -80
-32z m145 -322 l0 -315 -30 -21 c-28 -20 -31 -20 -60 -5 l-30 16 0 303 c0 168
-3 311 -6 320 -5 14 4 16 60 16 l66 0 0 -314z"/>
<path d="M817 1923 c-14 -16 -33 -46 -42 -67 -16 -37 -16 -41 2 -64 10 -14 86
-64 168 -112 83 -47 218 -126 302 -174 l152 -88 3 -363 3 -363 24 -26 c20 -22
33 -26 77 -26 46 0 55 4 78 31 l26 31 0 353 c0 313 2 354 16 366 9 8 145 88
302 179 164 95 294 176 305 192 18 24 19 30 6 59 -18 44 -67 99 -89 99 -15 0
-114 -55 -550 -307 -41 -23 -84 -43 -95 -43 -12 0 -138 68 -280 151 -280 163
-347 199 -368 199 -7 0 -25 -12 -40 -27z m386 -207 c158 -91 294 -166 303
-166 8 0 156 81 327 181 172 99 315 181 319 182 4 1 21 -21 37 -48 l29 -51
-320 -184 c-175 -101 -321 -187 -324 -192 -3 -5 -5 -177 -4 -383 l1 -375 -63
0 -63 0 3 371 c2 252 -1 375 -8 384 -6 7 -154 95 -328 196 l-318 184 30 52 30
52 30 -18 c17 -10 160 -94 319 -185z"/>
<path d="M1175 1459 c-22 -11 -60 -33 -85 -47 -61 -36 -82 -48 -195 -112 -53
-30 -106 -67 -116 -82 -18 -24 -18 -30 -6 -60 21 -49 66 -98 90 -98 12 0 49
16 82 36 33 20 74 44 90 53 120 66 289 168 310 187 44 41 26 77 -60 123 -49
26 -61 26 -110 0z m119 -50 l57 -31 -241 -139 c-132 -77 -245 -140 -250 -142
-5 -1 -23 20 -38 48 l-29 49 211 122 c116 68 216 123 222 123 6 1 36 -13 68
-30z"/>
<path d="M1730 1461 c-45 -24 -90 -66 -90 -84 0 -24 53 -65 194 -146 76 -45
140 -81 141 -81 2 0 32 -18 68 -40 92 -55 112 -59 146 -26 16 15 36 45 46 66
29 65 26 68 -307 259 -124 71 -150 78 -198 52z m275 -144 l212 -123 -30 -52
c-28 -50 -31 -52 -51 -39 -11 7 -121 71 -244 142 -148 85 -219 132 -213 138
17 17 85 55 100 56 7 1 109 -54 226 -122z"/>
</g>
</svg>
