<?xml version="1.0" encoding="UTF-8" standalone="no"?>
<!DOCTYPE svg PUBLIC "-//W3C//DTD SVG 20010904//EN" "http://www.w3.org/TR/2001/REC-SVG-20010904/DTD/svg10.dtd">
<svg version="1.0" xmlns="http://www.w3.org/2000/svg" width="300.000000pt" height="300.000000pt" viewBox="0 0 300.000000 300.000000" preserveAspectRatio="xMidYMid meet">
<metadata>
Created by potrace 1.10, written by Peter Selinger 2001-2011
</metadata>
<g transform="translate(0.000000,300.000000) scale(0.100000,-0.100000)" fill="#000000" stroke="none">
<path d="M1290 2816 c-390 -69 -713 -284 -919 -610 -268 -426 -269 -983 -2 -1406 189 -301 461 -500 811 -593 111 -29 123 -31 320 -31 197 0 209 2 320 31 331 88 593 271 780 544 360 526 293 1237 -160 1689 -183 184 -411 308 -670 365 -101 22 -380 29 -480 11z m345 -137 c180 -22 343 -79 494 -171 118 -73 306 -261 379 -379 238 -389 238 -869 0 -1258 -73 -118 -261 -306 -379 -379 -389 -238 -871 -238 -1257 0 -112 69 -291 245 -362 353 -134 208 -194 410 -194 655 0 246 60 448 195 655 71 110 250 285 360 353 232 142 503 203 764 171z"/>
<path d="M1364 2409 c-18 -20 -19 -43 -22 -335 -2 -173 -4 -314 -6 -314 -2 0 -109 61 -237 135 -234 136 -272 151 -302 120 -30 -29 -117 -193 -117 -218 0 -34 21 -48 253 -181 103 -60 187 -109 187 -111 0 -2 -91 -56 -202 -121 -112 -64 -211 -123 -220 -132 -29 -25 -21 -60 39 -164 59 -102 77 -117 125 -104 13 3 124 64 248 136 l225 130 5 -314 c6 -387 -8 -356 164 -356 67 0 126 4 132 8 31 20 34 55 34 356 0 168 2 306 3 306 2 0 109 -61 238 -135 296 -171 281 -170 361 -30 32 55 58 112 58 127 0 35 -19 48 -253 183 -104 59 -185 111 -180 115 4 4 89 53 188 110 223 127 245 143 245 177 0 27 -79 178 -112 213 -10 11 -31 20 -45 20 -15 0 -123 -56 -260 -135 -129 -74 -236 -135 -239 -135 -2 0 -4 139 -4 309 0 389 12 361 -164 361 -112 0 -125 -2 -142 -21z m204 -379 c1 -162 0 -305 -3 -317 -3 -12 -18 -29 -33 -37 -23 -12 -30 -12 -54 0 l-28 15 0 320 0 320 58 -3 57 -3 3 -295z m-390 -300 c171 -99 319 -180 328 -180 9 0 153 79 321 176 168 97 312 177 321 178 19 1 68 -82 56 -94 -5 -5 -144 -86 -309 -181 -165 -95 -307 -178 -315 -186 -13 -12 -15 -68 -15 -386 l0 -372 -57 -3 -58 -3 0 369 c0 338 -2 372 -17 390 -10 11 -156 99 -325 197 -170 97 -308 179 -308 182 0 13 51 93 59 93 5 0 148 -81 319 -180z m112 -321 c27 -17 50 -32 50 -34 0 -2 -96 -58 -212 -125 -117 -67 -227 -131 -244 -141 l-31 -19 -27 51 c-16 28 -25 53 -22 56 13 13 412 242 423 242 7 1 35 -13 63 -30z m710 -90 c116 -67 210 -124 210 -129 0 -4 -12 -28 -26 -54 -25 -44 -28 -46 -48 -33 -11 7 -118 69 -236 137 -118 68 -219 127 -224 131 -8 7 88 69 107 69 4 0 102 -54 217 -121z"/>
</g>
</svg>